<?xml version="1.0" encoding="utf-8"?>
<!-- Generator: Adobe Illustrator 26.3.1, SVG Export Plug-In . SVG Version: 6.00 Build 0)  -->
<svg version="1.1" id="Layer_1" xmlns="http://www.w3.org/2000/svg" xmlns:xlink="http://www.w3.org/1999/xlink" x="0px" y="0px"
	 viewBox="0 0 346 91.6" style="enable-background:new 0 0 346 91.6;" xml:space="preserve">
<style type="text/css">
	.st0{fill:#1A62A9;}
	.st1{fill:#C6342D;}
	.st2{fill:#7D96CC;}
	.st3{fill:#222221;}
	.st4{fill:#7D97CC;}
	.st5{fill:#232322;}
	.st6{fill:#7E98CD;}
	.st7{fill:#252524;}
	.st8{fill:#8099CD;}
	.st9{fill:#272727;}
	.st10{fill:#FEFEFE;}
	.st11{fill:#FEFDFD;}
</style>
<g>
	<path class="st0" d="M3.1,1.1c8.4,0,16.9,0,25.3,0c3.1,0,6.1,0.3,8.9,1.5c8.5,3.5,11.2,11.5,10,18.8C46.3,27.6,43.3,32.6,37,35
		c-2.7,1-5.4,1.2-8.2,1.3c-3,0-6.1,0-9.1,0c-0.9,0-1.1,0.3-1.1,1.1c0,4.4,0,8.9,0,13.3c0,0.9-0.2,1.2-1.1,1.1c-4.4,0-8.7,0-13.1,0
		c-0.4,0-0.9,0.1-1.3,0.1C3.1,34.9,3.1,18,3.1,1.1z"/>
	<path class="st0" d="M342.9,39.1c-0.4,0.1-0.3,0.5-0.3,0.7c-1.5,6.9-5.9,10.9-12.8,12.3c-4.4,0.9-8.9,1.1-13.1-0.7
		c-7.5-3.2-11.5-9-11.9-17.1c-0.3-5.9,1.3-11.1,5.8-15.1c2.9-2.6,6.5-3.8,10.3-4.5c4.3-0.8,8.5-0.4,12.6,1.4c5.1,2.2,8,6.3,9,11.7
		c0.1,0.8,0,1-0.9,1c-3.6,0-7.2,0-10.8,0c-0.5,0-0.9,0-1.1-0.6c-0.5-2.1-1.9-3.4-4-3.7c-2.4-0.3-4.4,0.5-5.8,2.5
		c-0.9,1.2-1.3,2.6-1.5,4.1c-0.3,2.5-0.3,4.9,0.6,7.3c0.8,2.2,2.3,3.7,4.7,4.2c3.6,0.7,6.4-1.3,6.6-5c0.1-1,0.4-1.2,1.3-1.2
		c3.8,0.1,7.6,0,11.4,0C342.9,37.4,342.9,38.3,342.9,39.1z"/>
	<path class="st1" d="M86.2,90.7c-0.4-0.5-1-0.4-1.5-0.7c-1.3-0.6-2.2-1.5-2.6-3c-0.1-0.5,0-0.7,0.6-0.7c1,0,1.7,0,2.3,1.1
		c0.8,1.4,2.5,1.5,4,1.3c1.6-0.1,2.8-1,3.3-2.5c0.5-1.2,0.6-2.4,0.4-3.8c-0.9,1.4-2,2.1-3.4,2.4c-1.4,0.2-2.7,0.2-4-0.4
		c-2.6-1.2-4.1-4-3.9-7.3c0.1-1.1,0.2-2.2,0.6-3.3c1.7-4.8,8.1-5.7,10.6-2.1c0.3-0.2,0.1-0.4,0.1-0.6c0.1-0.4-0.2-1,0.2-1.1
		c0.6-0.2,1.3-0.1,1.9,0c0.3,0,0.3,0.4,0.2,0.6c-0.1,4.8,0.2,9.6-0.1,14.3c-0.2,3-1.6,5.1-4.7,5.8c-0.1,0-0.1,0.1-0.1,0.2
		C88.9,90.7,87.5,90.7,86.2,90.7z"/>
	<path class="st2" d="M214.3,90.7c-0.3-0.4-0.8-0.4-1.2-0.5c-1-0.4-1.9-1-2.5-2c-0.3-0.6-0.8-1.2-0.3-1.8c0.4-0.5,2,0.1,2.4,0.7
		c1.4,2.3,5.8,2.2,7.3-0.3c0.8-1.3,0.8-2.7,0.7-4.3c-2,2.5-4.5,2.7-7,1.9c-2.8-1-3.9-3.4-4.2-6.1c-0.2-1.9,0.2-3.8,1-5.6
		c1.6-3.2,6.8-4.9,10.1-1.3c0.3-1.7,0.5-1.9,1.9-1.7c0.4,0.1,0.6,0.2,0.6,0.6c-0.1,5.1,0.3,10.3-0.2,15.4c-0.3,2.6-1.9,4.3-4.6,4.8
		c-0.1,0-0.2,0.1-0.3,0.2C216.9,90.7,215.6,90.7,214.3,90.7z"/>
	<path class="st0" d="M101.1,19c2.6-2.3,5.5-3.9,8.8-4.6c8.4-1.8,15.6,3.5,16.4,12.1c0.4,4.3,0.1,8.7,0.2,13c0,3.7,0,7.3,0,11
		c0,0.9-0.2,1.3-1.2,1.2c-4.1-0.1-8.2-0.1-12.2,0c-1,0-1.3-0.2-1.3-1.2c0-6.6,0-13.2,0-19.9c0-3.3-1.5-5-4.5-5.2
		c-2.8-0.1-5.2,2-5.5,4.8c-0.1,0.6-0.1,1.2-0.1,1.8c0,6.1,0,12.3,0,18.4c0,1-0.3,1.3-1.3,1.3c-3.9-0.1-7.8,0-11.6,0
		c-0.9,0-1.1-0.2-1.1-1.1c0-11.4,0-22.9,0-34.3c0-0.8,0.2-1.1,1.1-1.1c3.6,0,7.3,0.1,10.9,0c0.9,0,1.1,0.3,1.1,1.1
		C100.8,17.1,100.7,18,101.1,19z"/>
	<path class="st0" d="M261.1,19.1c2.7-2.3,5.5-3.9,8.8-4.7c8.1-1.8,15.1,2.9,16.3,11.1c0.2,1.1,0.3,2.2,0.3,3.3c0,7.2,0,14.4,0,21.7
		c0,0.9-0.2,1.2-1.2,1.2c-4.1-0.1-8.2-0.1-12.4,0c-1,0-1.2-0.3-1.2-1.2c0-6.6,0-13.2,0-19.7c0-3.5-1.5-5.2-4.6-5.3
		c-2.9-0.1-5.4,2.3-5.5,5.3c-0.1,3.5,0,7,0,10.5c0,3.1,0,6.1,0,9.2c0,0.9-0.2,1.2-1.1,1.2c-4-0.1-7.9,0-11.9,0c-0.8,0-1-0.2-1-1
		c0-11.5,0-23,0-34.6c0-0.7,0.1-1,0.9-1c3.7,0,7.4,0,11.2,0c0.7,0,1,0.2,1,0.9C260.9,17,261,17.9,261.1,19.1z"/>
	<path class="st0" d="M167,51.7c-4.5,0-8.8,0-13.1,0c-0.7,0-1.1-0.3-1.4-0.9c-0.4-0.8-0.5-1.6-0.7-2.3c-0.4-0.1-0.5,0.2-0.6,0.3
		c-4.9,4-10.4,4.9-16.3,3c-4.3-1.4-6.5-4.6-6.9-9c-0.3-4.3,1.6-7.3,5.3-9.4c3.3-1.8,6.9-2.4,10.5-3.1c2-0.4,3.9-0.8,5.9-1.2
		c1.5-0.3,2.1-1.2,2.3-2.4c0.1-1.2-0.6-2.3-1.8-2.9c-3-1.4-6.6-0.3-7.6,2.4c-0.2,0.6,0,1.5-0.7,1.8c-0.6,0.2-1.3,0-2,0
		c-3,0-5.9-0.1-8.9-0.1c-1,0-1.2-0.4-1.3-1.2c-0.1-4.4,1.7-7.6,5.5-9.7c2.5-1.4,5.3-2,8.1-2.3c4.4-0.5,8.7-0.4,12.9,1.1
		c4.7,1.7,8.1,4.6,9.1,9.7c0.2,1.1,0.2,2.3,0.3,3.5c0.1,5.3,0,10.7,0.1,16C165.6,47.2,165.8,49.5,167,51.7z"/>
	<path class="st0" d="M85.8,51.7c-4.5,0-8.9,0-13.2,0c-0.7,0-1.1-0.3-1.3-0.8c-0.3-0.8-0.6-1.7-0.9-2.6c-2.2,2.3-5,3.5-8,4.1
		C59.2,53,56,52.9,53,51.6c-3.7-1.6-5.8-4.5-6.2-8.5c-0.4-4.2,1.4-7.4,5-9.6c2.9-1.7,6.2-2.4,9.4-3c2.4-0.4,4.7-0.9,7-1.5
		c1.6-0.4,2.3-1.2,2.4-2.6c0.1-1.3-0.8-2.4-2.2-2.9c-3.6-1.3-6.7,0.2-7.5,3.9C60.9,28,60.6,28,60.2,28c-3.6-0.1-7.1-0.2-10.7-0.2
		c-0.8,0-1-0.3-1.1-1c-0.2-4.4,1.6-7.7,5.5-9.9c2.7-1.5,5.6-2.1,8.6-2.4c4.4-0.4,8.7-0.3,12.9,1.3c6,2.3,8.8,6.3,8.9,12.7
		c0,5.9-0.2,11.7,0.2,17.6C84.6,48,84.8,49.9,85.8,51.7z"/>
	<path class="st0" d="M225.7,14.4c5.6,0.3,10.8,1.5,14.9,5.6c8.3,8.2,7.1,24.3-4,30.2c-6.2,3.2-12.7,3.5-19.3,1.1
		c-6.5-2.4-10.2-7.1-11.5-13.7c-1.3-7.1,0.4-13.4,5.9-18.4C215.6,15.6,220.5,14.6,225.7,14.4z"/>
	<path class="st0" d="M174.2,39.6c1.9,0,3.8,0,5.6,0c0.4,0,0.7-0.1,0.9,0.5c0.8,3.4,3,4.9,6.4,4.5c2.3-0.3,3.6-1.4,3.7-3.1
		c0-1.6-1.1-2.6-3.4-3.1c-3.2-0.6-6.4-1.1-9.5-1.8c-1.9-0.4-3.6-1.2-5.3-2.2c-6-3.9-6.2-12.2-0.4-16.5c2.4-1.8,5.2-2.7,8.2-3.2
		c5.1-0.8,10.2-0.8,15.2,0.8c4,1.4,6.9,3.8,7.7,8.2c0.1,0.3,0.1,0.6,0.1,0.9c0.1,0.7-0.1,1-0.9,1c-3.7,0-7.4,0-11,0
		c-0.4,0-0.8,0.1-0.9-0.5c-0.4-2.5-2.8-3.1-4.9-3c-0.9,0-1.8,0.3-2.6,0.7c-0.7,0.4-1.2,0.9-1.2,1.8c0,0.8,0.6,1.4,1.3,1.7
		c1.4,0.6,2.9,0.6,4.3,1c2.5,0.6,5,1.1,7.5,1.7c1.3,0.3,2.5,0.8,3.7,1.4c8.7,4.2,7.3,14.4,1.8,18.6c-2.5,1.9-5.4,2.9-8.5,3.3
		c-5,0.7-10,0.7-14.8-0.8c-4.3-1.4-7.7-3.9-8.9-8.6c-0.9-3.4-0.9-3.4,2.6-3.4C171.8,39.6,173,39.6,174.2,39.6z"/>
	<path class="st0" d="M289.1,33.5c0-5.7,0-11.4,0-17.1c0-1,0.3-1.2,1.3-1.2c3.8,0.1,7.6,0,11.4,0c0.8,0,1.1,0.2,1.1,1
		c0,11.5,0,23,0,34.5c0,0.8-0.3,1.1-1.1,1.1c-3.8,0-7.7,0-11.5,0c-0.9,0-1.1-0.2-1.1-1.1C289.1,44.9,289.1,39.2,289.1,33.5z"/>
	<path class="st0" d="M296,10.2c-2,0-4,0-6,0c-0.7,0-0.9-0.2-0.9-0.9c0-2.5,0-4.9,0-7.4c0-0.6,0.1-0.8,0.8-0.8c4,0,8.1,0,12.1,0
		c0.6,0,0.8,0.2,0.8,0.8c0,2.5,0,4.9,0,7.4c0,0.8-0.3,0.9-1,0.9C299.9,10.2,297.9,10.2,296,10.2z"/>
	<path class="st3" d="M122.9,84.5c-1.8,0.7-2.8-0.3-3.6-1.5c-0.5-0.8-0.8-1-1.6-0.2c-2.1,2.2-4.8,2.8-7.7,1.9
		c-3.7-1.2-5-5.6-2.5-8.6c0.7-0.8,1.5-1.5,2.5-2.1c1.3-0.8,1.3-0.8,0.4-2c-0.5-0.7-1-1.4-1.3-2.3c-0.7-1.8-0.1-3.8,1.5-4.9
		c1.7-1.2,4.4-1.1,5.9,0.2c1.4,1.2,1.9,3.2,1,5c-0.6,1.3-1.7,2.2-2.9,3c-0.5,0.3-0.7,0.6-0.2,1.1c1.2,1.3,2.3,2.7,3.4,4
		c0.2,0.2,0.3,0.6,0.6,0.5c0.3-0.1,0.3-0.5,0.3-0.7c0.1-0.5,0.2-1,0.2-1.4c-0.1-1,0.4-1.1,1.2-1c1.1,0,0.6,0.8,0.6,1.2
		c-0.1,1.1-0.3,2.1-0.8,3.1c-0.3,0.5-0.2,0.8,0.2,1.3C121,82.2,121.9,83.4,122.9,84.5z"/>
	<path class="st1" d="M44.5,82.9c-2.1,2-4.5,2.5-7.1,1.9c-1.9-0.4-2.9-1.7-3.1-3.5c-0.2-2.1,0.7-3.7,2.6-4.4c1.5-0.6,3.1-0.8,4.7-1
		c0.4-0.1,0.9-0.1,1.3-0.2c0.8-0.2,1.5-0.5,1.5-1.4c0.1-1-0.3-1.9-1.2-2.2c-1.6-0.6-3.1-0.5-4.6,0.2c-0.5,0.2-0.7,0.7-1,1.2
		c-0.2,0.3,0.1,0.9-0.4,1c-0.6,0.1-1.3,0.1-1.9,0c-0.5,0-0.3-0.4-0.3-0.6c0.1-1.9,1.6-3.6,3.8-4.1c1.7-0.4,3.4-0.4,5.1,0
		c1.9,0.4,2.9,1.7,2.9,3.7c0,2.7,0,5.3,0,8c0,0.7-0.1,1.6,1.2,1.5c0.6-0.1,0.4,0.5,0.4,0.8c0,0.5,0.1,1-0.6,1.2
		C46.1,85.4,44.9,84.8,44.5,82.9z"/>
	<path class="st1" d="M32.3,80c-0.3,1.7-1.1,3.1-2.5,4c-4.1,2.6-9.4,0.5-10.6-4.2c-0.5-1.9-0.6-3.8,0.1-5.6c1.1-3.2,3.8-5,7.2-4.8
		c3,0.2,5.3,2.5,5.9,5.8c0.5,2.8,0.5,2.8-2.3,2.8c-2.6,0-5.2,0-7.8,0c-0.8,0-1,0.2-0.9,1c0.5,3.1,3.7,4.9,6.6,3.5
		c0.6-0.3,1.1-0.6,1.3-1.2C29.8,79.6,31,79.9,32.3,80z"/>
	<path class="st1" d="M6,71.8c1.5-2.1,3.5-2.5,5.7-2.3c2.5,0.2,4.1,1.8,4.2,4.3c0.1,3.4,0.1,6.9,0.1,10.3c0,1.3-1,0.5-1.5,0.7
		c-0.6,0.1-1,0-0.9-0.8c0-2.9,0-5.8,0-8.7c0-2.1-0.6-3-2.1-3.5c-1.8-0.5-3.8,0.3-4.7,1.8C6.2,74.4,6,75.3,6,76.3c0,2.5,0,5,0,7.5
		c0,1.1-0.6,0.9-1.2,0.9c-0.7,0-1.3,0.2-1.3-0.9c0.1-6.2,0.1-12.4,0-18.7c0-1.1,0.5-1,1.2-1c0.7,0,1.3-0.2,1.3,1
		C5.9,67.2,6,69.4,6,71.8z"/>
	<path class="st2" d="M154.5,85c-4.4,0-7.2-3-7.2-7.8c0-4.7,2.9-7.8,7.4-7.8c4.3,0,7.3,3.2,7.2,7.8C161.9,82,159,85,154.5,85z"/>
	<path class="st2" d="M171.2,85c-4.4,0-7.2-3.1-7.2-7.8c0-4.7,2.9-7.8,7.4-7.8c4.4,0,7.3,3.2,7.2,7.9C178.5,82,175.6,85,171.2,85z"
		/>
	<path class="st4" d="M196.5,72.1c1.7-2.5,3.9-3.1,6.5-2.5c2.2,0.5,3.5,1.9,3.6,4.3c0.1,3.3,0,6.7,0.1,10c0,1.1-0.7,0.7-1.3,0.7
		c-0.6,0-1.2,0.2-1.2-0.8c0-2.8,0-5.6,0-8.4c0-2.6-0.9-3.9-2.9-3.9c-2.5-0.1-4.4,1.5-4.4,3.9c-0.1,2.7-0.1,5.4,0,8.1
		c0,1.2-0.5,1.1-1.4,1.2c-0.9,0-1.3-0.2-1.2-1.2c0.1-4.1,0-8.3,0-12.4c0-0.9,0.1-1.5,1.2-1.5c1.2,0,1.2,0.5,1.1,1.4
		C196.5,71.3,196.5,71.5,196.5,72.1z"/>
	<path class="st1" d="M68.7,71.8c1.6-2.2,3.8-2.7,6.4-2.2c2,0.4,3.2,1.7,3.4,3.7c0.3,3.6,0.1,7.2,0.1,10.8c0,1.2-1,0.5-1.6,0.6
		c-0.6,0.1-0.9,0-0.9-0.8c0-2.9,0-5.8,0-8.7c0-2.1-0.6-3-2.1-3.4c-1.8-0.5-3.8,0.3-4.7,1.8c-0.5,0.9-0.7,1.9-0.7,2.9
		c0,2.4-0.1,4.9,0,7.3c0,1.1-0.5,1-1.2,1c-0.7,0-1.3,0.1-1.3-1c0.1-4.3,0.1-8.7,0-13c0-0.8,0.3-1,1-1c0.7,0.1,1.4-0.2,1.3,1
		C68.5,71,68.4,71.4,68.7,71.8z"/>
	<path class="st4" d="M138.7,85c-5.2,0-7.1-4-6.9-8.4c0-0.7,0.2-1.5,0.4-2.2c0.7-2.4,2.2-4.2,4.8-4.7c2.6-0.6,5.1-0.3,7,1.8
		c0.3,0.3,0.6,0.8,0.8,1.2c0.2,0.6,0.7,1.3,0.3,1.8c-0.4,0.4-1.1,0.1-1.7,0.2c-0.4,0-0.6-0.2-0.8-0.6c-0.9-1.9-2-2.6-3.9-2.5
		c-1.9,0.1-3.2,1.1-3.8,2.9c-0.6,1.8-0.7,3.7,0,5.5c0.7,1.9,2.1,2.8,4.1,2.8c2,0,3.1-0.9,3.8-2.9c0.2-0.6,2-1.1,2.5-0.6
		c0.3,0.2,0.1,0.5,0,0.8C144.6,83.3,142.3,85,138.7,85z"/>
	<path class="st3" d="M262.1,77.3c0,4.2-2.4,7.3-5.8,7.7c-5.1,0.6-8.7-3-8.3-8.3c0.3-4.3,2.8-7.1,6.4-7.3
		C259.1,69.2,262.1,72.3,262.1,77.3z"/>
	<path class="st3" d="M313,77.3c0,3.7-1.8,6.5-4.8,7.5c-5.1,1.6-9.7-2.2-9.3-7.9c0.3-4.4,2.8-7.3,6.4-7.4
		C310,69.2,313,72.3,313,77.3z"/>
	<path class="st3" d="M336.5,69.4c2.9,0,4.9,1.4,5.3,3.8c0.1,0.3,0.5,1-0.4,1c-0.5,0-1.3,0.4-1.4-0.5c-0.3-2.9-4.5-3.4-6.4-2
		c-1.3,1-1.2,2.8,0.3,3.6c1.5,0.8,3.1,1,4.7,1.3c2.6,0.6,4,2.2,3.8,4.6c-0.2,1.8-1.3,2.8-2.8,3.4c-1.8,0.7-3.8,0.7-5.6,0.2
		c-2-0.6-3.1-2-3.5-4c-0.1-0.3-0.4-0.8,0.2-0.8c0.5,0,1.2-0.4,1.5,0.4c1.2,3,4,4.2,6.8,2.7c1-0.5,1.6-1.2,1.6-2.3
		c0-1.2-0.8-1.8-1.7-2.2c-1.2-0.5-2.5-0.6-3.7-1c-0.8-0.2-1.5-0.4-2.3-0.8c-1.2-0.6-2-1.5-2.1-3c-0.1-1.5,0.5-2.6,1.7-3.5
		C333.8,69.6,335.2,69.4,336.5,69.4z"/>
	<path class="st3" d="M240.1,69.4c2.8,0,4.8,1.3,5.3,3.5c0.1,0.4,0.6,1.1-0.3,1.2c-0.6,0.1-1.3,0.3-1.5-0.7
		c-0.2-1.4-1.2-2.1-2.5-2.4c-1.5-0.3-3-0.2-4.1,0.9c-1.1,1-0.7,2.6,0.7,3.4c1.5,0.8,3.1,0.9,4.7,1.3c1.7,0.4,3.2,1.2,3.6,3.1
		c0.5,2-0.4,3.8-2.3,4.7c-2.2,1-4.5,1-6.7,0.1c-1.7-0.7-2.5-2-2.8-3.8c0-0.3-0.4-0.8,0.3-0.8c0.5,0,1.2-0.5,1.5,0.4
		c1,3,4,4.2,6.8,2.7c1-0.5,1.6-1.2,1.6-2.3c0-1.2-0.7-1.9-1.7-2.2c-1.2-0.4-2.5-0.6-3.7-1c-0.8-0.2-1.5-0.4-2.3-0.8
		c-2.7-1.3-2.9-4.8-0.4-6.4C237.4,69.6,238.7,69.4,240.1,69.4z"/>
	<path class="st5" d="M317.5,72.2c1.9-2.7,4.6-3.5,7.4-2.5c1.9,0.7,2.7,2.2,2.8,4.1c0.1,3.4,0,6.9,0.1,10.3c0,0.8-0.6,0.5-1,0.6
		c-0.5,0.1-0.9,0-0.9-0.7c0-2.5,0-4.9,0-7.4c0-0.6,0-1.2,0-1.8c-0.1-2.1-0.9-3.3-2.4-3.7c-1.9-0.5-3.9,0.1-5,1.7
		c-0.7,1.1-1,2.2-1,3.5c0,2.5,0,5,0,7.5c0,0.7-0.2,0.9-0.9,0.9c-0.7,0-1-0.2-0.9-0.9c0-4.3,0-8.7,0-13c0-0.8,0.3-0.9,1-1
		c0.9,0,0.9,0.4,0.8,1C317.5,71.2,317.5,71.6,317.5,72.2z"/>
	<path class="st1" d="M55.3,84.7c-0.4,0-0.7,0-1.1,0c-1.9-0.2-2.6-0.9-2.6-2.9c0-2.8-0.1-5.6,0-8.4c0-1.2-0.2-1.7-1.5-1.5
		c-0.9,0.2-1.1-0.3-1.1-1.1c0-0.9,0.3-1.2,1.2-1.1c1.2,0.2,1.6-0.3,1.4-1.4c-0.1-0.5,0-1.1,0-1.7c0-1.2,1-1.8,2.2-1.3
		c0.4,0.2,0.3,0.4,0.3,0.7c0,0.7,0,1.4,0,2c0,1.9-0.2,1.7,1.6,1.7c0,0,0.1,0,0.1,0c1.1-0.2,1.4,0.3,1.3,1.3c0,0.7-0.3,0.9-1,0.9
		c-2.1,0-2.1,0-2.1,2.2c0,2.2,0,4.4,0,6.6c0,1.6,0.2,1.8,1.8,1.8c1.1,0,1.6,0.8,1.2,1.8C56.9,84.7,56.9,84.7,55.3,84.7z"/>
	<path class="st3" d="M280.6,82.1c-1.6,2.4-3.6,3.2-6,2.9c-2.6-0.3-4.2-1.7-4.3-4.4c-0.1-3.4,0-6.8-0.1-10.2c0-0.8,0.4-0.7,0.9-0.7
		c0.5,0,0.9,0,0.9,0.7c0,2.7,0,5.3,0,8c0,0.5,0,1,0.1,1.6c0.3,2.1,1,3,2.6,3.4c2,0.4,3.7-0.2,4.7-1.8c0.8-1.3,1-2.7,1.1-4.2
		c0-2.2,0-4.5,0-6.7c0-0.7,0.1-1,0.9-1c0.7,0,1,0.2,1,0.9c0,4.4,0,8.8,0,13.2c0,0.7-0.2,0.9-0.9,0.9c-0.7,0-0.9-0.3-0.8-0.9
		C280.6,83.4,280.6,82.9,280.6,82.1z"/>
	<path class="st6" d="M181.5,74.3c0-3.1,0-6.1,0-9.2c0-1.1,0.6-1,1.3-1c0.7,0,1.3-0.2,1.3,1c0,6.2,0,12.4,0,18.7
		c0,1.2-0.7,0.9-1.4,1c-0.8,0.1-1.2-0.1-1.2-1.1C181.5,80.5,181.5,77.4,181.5,74.3z"/>
	<path class="st5" d="M286.8,77c0-1.3,0-2.6,0-3.9c0-1.7,0-1.8-1.7-1.7c-0.8,0-0.9-0.2-0.9-0.9c0-0.8,0.6-0.6,1-0.6
		c1.6,0,1.6,0,1.6-1.6c0-0.6,0.1-1.2,0-1.8c-0.2-1,0.4-1.1,1.2-1c0.6,0,0.7,0.2,0.7,0.8c0,0.9,0.1,1.8,0,2.6c-0.1,1,0.3,1.2,1.2,1.1
		c0.4,0,0.7,0,1.1,0c0.6-0.1,0.8,0.2,0.8,0.8c0,0.7-0.3,0.7-0.9,0.7c-2.2,0-2.2,0.1-2.2,2.2c0,2.7,0,5.3,0,8c0,1.5,0.4,1.8,1.9,1.8
		c0.5,0,1.1-0.3,1.1,0.7c0,0.9-0.5,0.8-1.1,0.8c-0.4,0-0.8,0-1.2,0c-1.9-0.1-2.6-0.8-2.6-2.7C286.7,80.4,286.8,78.7,286.8,77
		C286.8,77,286.8,77,286.8,77z"/>
	<path class="st6" d="M187.9,77.3c0-2.2,0-4.3,0-6.5c0-1,0.4-1.2,1.2-1.1c0.7,0,1.4-0.1,1.4,1c-0.1,4.3-0.1,8.6,0,12.9
		c0,1.2-0.7,1-1.5,1.1c-0.9,0.1-1.2-0.3-1.1-1.1C188,81.5,187.9,79.4,187.9,77.3z"/>
	<path class="st1" d="M59.9,77.3c0-2.1,0.1-4.3,0-6.4c0-1,0.3-1.2,1.2-1.2c0.8,0,1.3,0,1.3,1.1c-0.1,4.3-0.1,8.6,0,12.9
		c0,1-0.5,1-1.2,1c-0.8,0-1.3,0-1.3-1.1C60,81.5,59.9,79.4,59.9,77.3z"/>
	<path class="st3" d="M266.7,74.6c0,3.1,0,6.1,0,9.2c0,0.7-0.1,1-0.9,1c-0.8,0-0.9-0.3-0.9-1c0-6.3,0-12.5,0-18.8
		c0-0.8,0.3-0.9,1-0.9c0.7,0,0.9,0.2,0.8,0.9C266.6,68.2,266.7,71.4,266.7,74.6z"/>
	<path class="st7" d="M294.3,77.3c0-2.2,0-4.4,0-6.6c0-0.7,0.2-1,0.9-1c0.7,0,1,0.1,1,0.9c0,4.4,0,8.8,0,13.2c0,0.8-0.3,0.9-1,0.9
		c-0.8,0-0.9-0.2-0.9-1C294.3,81.6,294.3,79.5,294.3,77.3z"/>
	<path class="st8" d="M187.9,65.5c-0.3-1.1,0.2-1.3,1.3-1.4c1.5-0.1,1.2,0.8,1.2,1.7c0.1,1-0.2,1.3-1.3,1.4
		C187.8,67.2,187.8,66.4,187.9,65.5z"/>
	<path class="st1" d="M62.3,65.6c0.3,1.1,0,1.5-1.2,1.5c-1.5,0.1-1.1-0.9-1.2-1.7c-0.1-0.9,0-1.4,1.2-1.4
		C62.6,64,62.5,64.7,62.3,65.6z"/>
	<path class="st9" d="M296.1,65.8c0.1,0.7,0.1,1.4-1.2,1.2c-0.5-0.1-0.7-0.1-0.7-0.7c0-0.4,0-0.8,0-1.2c-0.1-0.8,0.2-1.1,1-1.1
		c1,0,0.9,0.5,0.8,1.1C296.1,65.3,296.1,65.5,296.1,65.8z"/>
	<path class="st10" d="M18.6,18.7c0-1.4,0-2.9,0-4.3c0-0.6,0.1-0.9,0.8-0.9c2.8,0,5.6,0,8.4,0c2.9,0.1,4.8,1.9,5,4.6
		c0.2,2.9-1.5,5.3-4.3,5.7c-3.1,0.4-6.2,0.1-9.3,0.1c-0.6,0-0.6-0.4-0.6-0.8C18.6,21.6,18.6,20.2,18.6,18.7z"/>
	<path class="st10" d="M92.7,76.8c0,1.4-0.2,2.5-0.8,3.6c-0.8,1.6-2.1,2.3-3.9,2.2c-1.7-0.1-2.8-1-3.4-2.5c-0.7-1.8-0.8-3.6-0.2-5.4
		c0.6-2,2.1-3.2,4.1-3.1c1.9,0,3.2,1.1,3.9,3.1C92.7,75.5,92.7,76.3,92.7,76.8z"/>
	<path class="st10" d="M212.1,77.2c0-1.7,0.3-3.1,1.3-4.3c2-2.2,5.6-1.5,6.7,1.3c0.8,2,0.8,4-0.1,6c-0.9,1.9-2.1,2.6-4.3,2.5
		c-1.6-0.1-2.9-1.3-3.4-3.1C212.2,78.7,212.1,77.9,212.1,77.2z"/>
	<path class="st10" d="M152.1,37.7c0,4.8-4.3,7.9-8.9,6.6c-1.4-0.4-2.2-1.3-2.4-2.7c-0.1-1.2,0.5-2.2,1.9-2.9
		c1.4-0.7,3.1-0.9,4.6-1.4c1.2-0.4,2.4-0.8,3.6-1.3c0.9-0.4,1.2-0.2,1.2,0.7C152.1,37,152.1,37.3,152.1,37.7z"/>
	<path class="st10" d="M70.7,35.6c0.4,1.4,0.3,2.7,0,4c-0.9,3.8-5.9,6.1-9.4,4.3c-2.1-1-2.3-3.7-0.4-4.9c0.5-0.3,1-0.6,1.6-0.8
		C65.3,37.6,68,36.7,70.7,35.6z"/>
	<path class="st10" d="M219.4,33.9c0.1-2.1,0.2-4.2,1.1-6.2c1.1-2.5,2.9-3.8,5.2-3.8c2.6,0.1,4.3,1.5,5.1,3.8
		c1.5,4.1,1.5,8.2,0,12.3c-0.8,2.3-2.5,3.8-5.1,3.8c-2.6,0-4.2-1.5-5.2-3.8C219.6,38.1,219.5,36,219.4,33.9z"/>
	<path class="st10" d="M112.6,83.6c-1.9,0-3.6-1-4.2-2.6c-0.7-1.6-0.2-3.2,1.2-4.7c2.1-2.1,2.5-2.1,4.4,0.1c1,1.2,1.9,2.4,3,3.6
		c0.5,0.5,0.4,0.8,0,1.3C115.7,82.6,114.4,83.6,112.6,83.6z"/>
	<path class="st10" d="M110.6,68.2c0-1.1,0.5-1.9,1.5-2.4c1.1-0.5,2.5-0.3,3.2,0.5c0.9,0.9,0.9,2,0.4,3.1c-0.5,1.2-1.5,1.9-2.5,2.6
		c-0.2,0.2-0.4,0.2-0.6,0C111.7,71,110.6,69.8,110.6,68.2z"/>
	<path class="st10" d="M44.4,77.2c0,0.4,0,0.7,0,1.1c0,3.3-2.1,5.1-5.4,4.5c-1-0.2-1.8-0.6-2-1.7c-0.2-1.2,0.3-2.1,1.4-2.6
		c0.8-0.4,1.6-0.4,2.4-0.6c0.6-0.1,1.2-0.2,1.8-0.3C43.2,77.5,43.7,77.3,44.4,77.2z"/>
	<path class="st11" d="M25.6,75.8c-1.2,0-2.3,0-3.5,0c-0.6,0-0.8-0.1-0.6-0.8c0.4-2.1,2.1-3.5,4.2-3.5c2.1,0,3.8,1.6,4.2,3.6
		c0.1,0.6-0.1,0.7-0.6,0.7C28.1,75.8,26.8,75.8,25.6,75.8z"/>
	<path class="st10" d="M150,77.4c0-3.1,1.3-5.1,3.6-5.6c1.9-0.5,3.9,0.3,4.9,2.1c1.1,2.1,1.1,4.3,0.2,6.4c-0.8,1.8-2.6,2.7-4.6,2.5
		c-1.7-0.2-3.2-1.5-3.8-3.4C150.1,78.7,149.9,78,150,77.4z"/>
	<path class="st10" d="M175.9,77.2c0,1.1-0.2,2.1-0.6,3c-0.8,1.7-2.1,2.7-4,2.7c-1.9,0-3.3-0.8-4.1-2.6c-0.9-2-0.9-4.1,0.1-6.1
		c0.8-1.7,2.2-2.6,4.1-2.5c1.9,0.1,3.3,1.2,4,2.9C175.7,75.4,175.9,76.3,175.9,77.2z"/>
	<path class="st10" d="M249.8,77.2c0-1.6,0.4-3.1,1.5-4.5c2.1-2.6,6.1-2.4,7.9,0.6c1.4,2.3,1.4,4.8,0.4,7.2c-0.9,1.9-2.4,3.1-4.6,3
		c-2.2,0-3.6-1.2-4.5-3C250,79.5,249.8,78.4,249.8,77.2z"/>
	<path class="st10" d="M300.7,77.2c0.1-1.6,0.4-3.1,1.5-4.4c2.1-2.7,6.1-2.5,7.9,0.5c1.5,2.5,1.5,5.1,0.2,7.6
		c-0.9,1.7-2.3,2.7-4.3,2.7c-2,0-3.4-1-4.3-2.7C301,79.8,300.7,78.5,300.7,77.2z"/>
</g>
</svg>
